<svg width="12" height="57" viewBox="0 0 12 57" fill="none" xmlns="http://www.w3.org/2000/svg">
<path d="M1.662 52.204L1.662 56.88H11V55.452H6.716V52.316H5.372V55.452H3.006L3.006 52.204H1.662ZM9.012 46.4727C9.236 46.5987 9.474 46.7807 9.656 47.0187C9.866 47.2987 9.95 47.5787 9.95 47.9567C9.95 48.2927 9.894 48.6847 9.572 49.0067C9.278 49.3007 8.802 49.4827 8.382 49.5107V45.2827H8.214C7.598 45.2827 6.506 45.3527 5.722 46.1087C5.358 46.4587 4.952 47.0607 4.952 47.9987C4.952 48.8387 5.26 49.4827 5.75 49.9727C6.38 50.5887 7.262 50.9107 8.172 50.9107C9.054 50.9107 9.866 50.6027 10.426 50.0427C10.986 49.4827 11.182 48.8387 11.182 48.0547C11.182 47.4247 11.042 46.7947 10.734 46.3187C10.496 45.9407 10.104 45.5767 9.656 45.3247L9.012 46.4727ZM7.262 49.4127C6.968 49.3427 6.688 49.1887 6.506 48.9927C6.324 48.8107 6.128 48.5027 6.128 48.0267C6.128 47.5787 6.296 47.2847 6.464 47.1027C6.66 46.8927 6.94 46.7387 7.262 46.6827V49.4127ZM9.012 39.2188C9.236 39.3448 9.474 39.5268 9.656 39.7648C9.866 40.0448 9.95 40.3248 9.95 40.7028C9.95 41.0388 9.894 41.4308 9.572 41.7528C9.278 42.0468 8.802 42.2288 8.382 42.2568L8.382 38.0288H8.214C7.598 38.0288 6.506 38.0988 5.722 38.8548C5.358 39.2048 4.952 39.8068 4.952 40.7448C4.952 41.5848 5.26 42.2288 5.75 42.7188C6.38 43.3348 7.262 43.6568 8.172 43.6568C9.054 43.6568 9.866 43.3488 10.426 42.7888C10.986 42.2288 11.182 41.5848 11.182 40.8008C11.182 40.1708 11.042 39.5408 10.734 39.0648C10.496 38.6868 10.104 38.3228 9.656 38.0708L9.012 39.2188ZM7.262 42.1588C6.968 42.0888 6.688 41.9348 6.506 41.7388C6.324 41.5568 6.128 41.2488 6.128 40.7728C6.128 40.3248 6.296 40.0308 6.464 39.8488C6.66 39.6388 6.94 39.4848 7.262 39.4288L7.262 42.1588ZM5.792 31.7829C5.064 32.3429 4.952 33.0989 4.952 33.5329C4.952 35.0869 6.128 36.4029 8.046 36.4029C9.67 36.4029 11.182 35.3669 11.182 33.5469C11.182 33.1269 11.084 32.3849 10.384 31.7829H11V30.4109L0.794 30.4109V31.7829H5.792ZM6.184 33.3649C6.184 32.4969 6.8 31.6989 8.088 31.6989C9.32 31.6989 9.95 32.4969 9.95 33.3649C9.95 34.3589 9.096 35.0029 8.074 35.0029C7.024 35.0029 6.184 34.3589 6.184 33.3649ZM0.794 26.7991L0.794 28.1711L11 28.1711V26.7991H10.384C11.084 26.1971 11.182 25.4551 11.182 25.0351C11.182 23.2151 9.67 22.1791 8.046 22.1791C6.128 22.1791 4.952 23.4951 4.952 25.0491C4.952 25.4831 5.064 26.2391 5.792 26.7991H0.794ZM6.184 25.2171C6.184 24.2231 7.024 23.5791 8.074 23.5791C9.096 23.5791 9.95 24.2231 9.95 25.2171C9.95 26.0851 9.32 26.8831 8.088 26.8831C6.8 26.8831 6.184 26.0851 6.184 25.2171ZM5.792 15.9352C5.064 16.4952 4.952 17.2512 4.952 17.6852C4.952 19.2392 6.128 20.5552 8.046 20.5552C9.67 20.5552 11.182 19.5192 11.182 17.6992C11.182 17.2792 11.084 16.5372 10.384 15.9352H11V14.5632H5.106V15.9352H5.792ZM6.184 17.5172C6.184 16.6492 6.8 15.8512 8.088 15.8512C9.32 15.8512 9.95 16.6492 9.95 17.5172C9.95 18.5112 9.096 19.1552 8.074 19.1552C7.024 19.1552 6.184 18.5112 6.184 17.5172ZM5.372 7.75941C5.022 8.38941 4.952 8.92141 4.952 9.36941C4.952 10.5314 5.358 11.2734 5.82 11.7354C6.254 12.1694 6.996 12.6314 8.102 12.6314C9.18 12.6314 9.88 12.2114 10.314 11.7914C10.902 11.2314 11.182 10.5314 11.182 9.55141C11.182 8.64141 10.93 8.09541 10.72 7.75941H9.194C9.726 8.23541 9.95 8.89341 9.95 9.45341C9.95 9.95741 9.768 10.3914 9.474 10.6994C9.208 10.9654 8.746 11.2314 8.06 11.2314C7.402 11.2314 6.954 10.9794 6.702 10.7274C6.45 10.4754 6.184 10.0694 6.184 9.42541C6.184 9.00541 6.296 8.38941 6.912 7.75941H5.372ZM0.794 5.9445H11L11 4.5725H8.732L8.48 4.3205L11 2.3885V0.6525L7.556 3.3685L5.106 0.8345V2.6545L7.08 4.5725H0.794V5.9445Z" fill="white"/>
</svg>
