<svg xmlns="http://www.w3.org/2000/svg" width="202.688" height="48" viewBox="0 0 202.688 48">
  <defs>
    <style>
      .cls-1 {
        fill: #fff;
        fill-rule: evenodd;
      }

      .cls-2 {
        fill: #f7a63d;
      }
    </style>
  </defs>
  <path id="Renroll" class="cls-1" d="M370.505,12258.4c-1.39-1.1-3.715-1.7-6.975-1.7h-7.95v21h4.68v-6.7h3.24l4.65,6.7h5.76l-5.31-7.5c2.66-1,3.99-3.2,3.99-6.5C372.59,12261.2,371.9,12259.5,370.505,12258.4Zm-6.825,8.5h-3.42v-6.2h3.51a5.053,5.053,0,0,1,3.15.7,2.613,2.613,0,0,1,.9,2.3,3.394,3.394,0,0,1-.87,2.5c-0.58.5-1.67,0.7-3.27,0.7h0Zm13.15-10.2v21h15.45v-4.2H381.51v-4.3h9.39v-4h-9.39v-4.3h10.44v-4.2H376.83Zm33.92,13.5-10.29-13.5h-4.38v21h4.68v-13.2l9.99,13.2h4.68v-21h-4.68v13.5Zm24.5-11.8c-1.39-1.1-3.715-1.7-6.975-1.7h-7.95v21h4.68v-6.7h3.24l4.65,6.7h5.76l-5.31-7.5c2.66-1,3.99-3.2,3.99-6.5C437.34,12261.2,436.645,12259.5,435.255,12258.4Zm-6.825,8.5h-3.42v-6.2h3.51a5.053,5.053,0,0,1,3.15.7,2.613,2.613,0,0,1,.9,2.3,3.394,3.394,0,0,1-.87,2.5c-0.58.5-1.67,0.7-3.27,0.7h0Zm27.4,5a6.1,6.1,0,0,1-8.85,0,6.986,6.986,0,0,1-1.8-4.8,6.813,6.813,0,0,1,1.8-4.8,5.9,5.9,0,0,1,8.85,0,6.813,6.813,0,0,1,1.8,4.8A6.986,6.986,0,0,1,455.83,12271.9Zm6.57-4.8a10.542,10.542,0,0,0-3.18-7.8,11.439,11.439,0,0,0-15.66,0,11.034,11.034,0,0,0,0,15.5,11.439,11.439,0,0,0,15.66,0A10.477,10.477,0,0,0,462.4,12267.1Zm17.05,10.6v-4.2h-8.94v-16.8h-4.68v21h13.62Zm16.25,0v-4.2h-8.94v-16.8h-4.68v21H495.7Z" transform="translate(-293 -12252)"/>
  <path id="Anytime_Everywhere" data-name="Anytime Everywhere" class="cls-1" d="M361.07,12285.7h-1.281l-3.724,9.3h0.975a0.287,0.287,0,0,0,.273-0.1,0.621,0.621,0,0,0,.156-0.2l0.871-2.2h4.18l0.871,2.2a0.25,0.25,0,0,0,.156.2,0.278,0.278,0,0,0,.272.1H364.8Zm-0.916,2.1a1.681,1.681,0,0,1,.133-0.4c0.045-.2.092-0.3,0.14-0.5,0.09,0.3.184,0.6,0.279,0.9l1.462,3.7h-3.477Zm7.017,7.2v-4.8a2.159,2.159,0,0,1,.822-0.7,1.685,1.685,0,0,1,.959-0.3,1.56,1.56,0,0,1,1.043.4,1.934,1.934,0,0,1,.342,1.2v4.2h1.157v-4.2a3.152,3.152,0,0,0-.143-1,2.208,2.208,0,0,0-.42-0.8,1.823,1.823,0,0,0-.689-0.5,2.75,2.75,0,0,0-.952-0.2,2.441,2.441,0,0,0-1.225.3,4.365,4.365,0,0,0-.959.8l-0.091-.7a0.314,0.314,0,0,0-.312-0.3h-0.689v6.6h1.157Zm11.511-6.6h-0.923a0.2,0.2,0,0,0-.205.1,0.232,0.232,0,0,0-.133.2l-1.709,4.1c-0.039.1-.074,0.2-0.1,0.3s-0.061.2-.091,0.3q-0.033-.15-0.075-0.3c-0.028-.1-0.062-0.2-0.1-0.3l-1.761-4.1a0.241,0.241,0,0,0-.124-0.2,0.218,0.218,0,0,0-.234-0.1h-1l2.717,6.2-1.2,2.6h1.127a2.074,2.074,0,0,0,.147-0.3Zm4.329,6.5a1.8,1.8,0,0,0,.721-0.4l-0.338-.5a0.307,0.307,0,0,0-.162-0.2,1.172,1.172,0,0,1-.121.1,1.194,1.194,0,0,1-.165.1,2.207,2.207,0,0,1-.231.1c-0.089,0-.194.1-0.315,0.1a0.871,0.871,0,0,1-.52-0.2,1.15,1.15,0,0,1-.2-0.7v-3.9h1.885v-0.9h-1.885v-2.2h-0.767a0.431,0.431,0,0,0-.084.2l-0.267,2-1.079.2v0.4a0.193,0.193,0,0,0,.072.2,0.156,0.156,0,0,0,.175.1h0.793v4a1.787,1.787,0,0,0,.419,1.3,1.539,1.539,0,0,0,1.2.4A1.376,1.376,0,0,0,383.011,12294.9Zm2.328-6.5v6.6H386.5v-6.6h-1.157Zm1.349-2.4a0.284,0.284,0,0,0-.182-0.2,0.4,0.4,0,0,0-.264-0.2,0.39,0.39,0,0,0-.318-0.1,0.382,0.382,0,0,0-.315.1,0.4,0.4,0,0,0-.26.2,0.275,0.275,0,0,0-.179.2,0.755,0.755,0,0,0-.065.3,0.921,0.921,0,0,0,.065.4,0.978,0.978,0,0,0,.179.2,0.4,0.4,0,0,0,.26.2c0.1,0,.2.1,0.315,0.1s0.219-.1.318-0.1a0.4,0.4,0,0,0,.264-0.2,1.1,1.1,0,0,0,.182-0.2,0.884,0.884,0,0,0,.068-0.4A0.727,0.727,0,0,0,386.688,12286Zm2.743,9v-4.9a1.557,1.557,0,0,1,.673-0.6,1.233,1.233,0,0,1,.8-0.3,1.35,1.35,0,0,1,.929.4,2.033,2.033,0,0,1,.319,1.2v4.2h1.157v-4.2a1.843,1.843,0,0,1,.114-0.7,2.506,2.506,0,0,1,.308-0.5,4.321,4.321,0,0,1,.452-0.3c0.171,0,.352-0.1.543-0.1a1.467,1.467,0,0,1,.981.4,1.946,1.946,0,0,1,.338,1.2v4.2H397.2v-4.2a4.163,4.163,0,0,0-.149-1.1,1.792,1.792,0,0,0-.432-0.7,1.187,1.187,0,0,0-.689-0.5,2.651,2.651,0,0,0-.927-0.2,1.421,1.421,0,0,0-.64.1,1.305,1.305,0,0,0-.595.2,1.743,1.743,0,0,0-.5.5,1.069,1.069,0,0,0-.361.6,1.961,1.961,0,0,0-.595-1,1.364,1.364,0,0,0-1.082-.4,1.853,1.853,0,0,0-1.05.3,3.41,3.41,0,0,0-.816.7l-0.084-.6a0.314,0.314,0,0,0-.312-0.3h-0.689v6.6h1.157Zm11.228-6.4a2.1,2.1,0,0,0-.969.7,2.214,2.214,0,0,0-.608,1,3.748,3.748,0,0,0-.211,1.3,5.012,5.012,0,0,0,.234,1.5,2.979,2.979,0,0,0,1.648,1.8,4.929,4.929,0,0,0,1.257.2,5.27,5.27,0,0,0,1.427-.3,0.894,0.894,0,0,0,.64-0.3,1.262,1.262,0,0,0,.514-0.4l-0.325-.4a0.3,0.3,0,0,0-.221-0.2,2.641,2.641,0,0,1-.263.1,2.57,2.57,0,0,1-.38.3,1.507,1.507,0,0,0-.543.2c-0.21,0-.461.1-0.751,0.1a2.276,2.276,0,0,1-.845-0.2,1.623,1.623,0,0,1-.65-0.4,2.386,2.386,0,0,1-.429-0.8,3.793,3.793,0,0,1-.169-1.1H404.4a0.186,0.186,0,0,0,.221-0.1,0.528,0.528,0,0,0,.058-0.3,3.872,3.872,0,0,0-.2-1.3,1.949,1.949,0,0,0-.569-0.9,1.748,1.748,0,0,0-.865-0.6,3.768,3.768,0,0,0-1.092-.2A2.725,2.725,0,0,0,400.659,12288.6Zm2.018,0.7a1.25,1.25,0,0,1,.523.4,1,1,0,0,1,.325.6,1.889,1.889,0,0,1,.11.7h-3.581a2.61,2.61,0,0,1,.6-1.4,1.836,1.836,0,0,1,1.32-.4A1.594,1.594,0,0,1,402.677,12289.3Zm6.974-3.6v9.3h5.74v-1h-4.472v-3.2h3.62v-1h-3.62v-3.1h4.472v-1h-5.74Zm9.736,9.3h1.046l2.685-6.6h-0.9a0.206,0.206,0,0,0-.218.1,0.238,0.238,0,0,0-.126.2l-1.69,4.2a1.8,1.8,0,0,0-.15.5c-0.039.1-.076,0.3-0.11,0.4-0.031-.1-0.063-0.3-0.1-0.4a1.7,1.7,0,0,0-.143-0.5l-1.67-4.2a0.236,0.236,0,0,0-.13-0.2,0.219,0.219,0,0,0-.228-0.1H416.7Zm5.532-6.4a2.1,2.1,0,0,0-.969.7,2.214,2.214,0,0,0-.608,1,3.748,3.748,0,0,0-.211,1.3,5.012,5.012,0,0,0,.234,1.5,2.979,2.979,0,0,0,1.648,1.8,4.929,4.929,0,0,0,1.258.2,5.273,5.273,0,0,0,1.426-.3,0.9,0.9,0,0,0,.641-0.3,1.266,1.266,0,0,0,.513-0.4l-0.325-.4a0.3,0.3,0,0,0-.221-0.2,2.641,2.641,0,0,1-.263.1,2.57,2.57,0,0,1-.38.3,1.507,1.507,0,0,0-.543.2c-0.21,0-.461.1-0.751,0.1a2.276,2.276,0,0,1-.845-0.2,1.623,1.623,0,0,1-.65-0.4,2.386,2.386,0,0,1-.429-0.8,3.793,3.793,0,0,1-.169-1.1h4.381a0.186,0.186,0,0,0,.221-0.1,0.526,0.526,0,0,0,.059-0.3,3.872,3.872,0,0,0-.2-1.3,1.949,1.949,0,0,0-.569-0.9,1.75,1.75,0,0,0-.864-0.6,3.781,3.781,0,0,0-1.092-.2A2.727,2.727,0,0,0,424.919,12288.6Zm2.018,0.7a1.25,1.25,0,0,1,.523.4,1,1,0,0,1,.325.6,1.888,1.888,0,0,1,.111.7h-3.582a2.61,2.61,0,0,1,.6-1.4,1.838,1.838,0,0,1,1.32-.4A1.594,1.594,0,0,1,426.937,12289.3Zm4.884,5.7v-4.2a2.64,2.64,0,0,1,.679-1,1.722,1.722,0,0,1,1.011-.4,5.023,5.023,0,0,1,.526.1,1.32,1.32,0,0,1,.28.1,0.24,0.24,0,0,0,.2-0.2l0.15-.9c-0.126,0-.262-0.1-0.41-0.1a0.826,0.826,0,0,0-.494-0.1,1.638,1.638,0,0,0-1.166.4,2.422,2.422,0,0,0-.836,1.1l-0.078-1.1a0.23,0.23,0,0,0-.1-0.2,0.234,0.234,0,0,0-.26-0.1h-0.663v6.6h1.157Zm9.511-6.6h-0.923a0.2,0.2,0,0,0-.2.1,0.232,0.232,0,0,0-.133.2l-1.71,4.1c-0.038.1-.073,0.2-0.1,0.3s-0.06.2-.091,0.3c-0.021-.1-0.046-0.2-0.074-0.3s-0.062-.2-0.1-0.3l-1.762-4.1a0.24,0.24,0,0,0-.123-0.2,0.218,0.218,0,0,0-.234-0.1h-1l2.717,6.2-1.2,2.6h1.128a2.183,2.183,0,0,0,.147-0.3Zm2.736,6.6h0.871a0.309,0.309,0,0,0,.266-0.2l1.476-4.5a2.593,2.593,0,0,0,.085-0.3c0.021-.1.043-0.2,0.065-0.3,0.021,0.1.043,0.2,0.065,0.3a2.4,2.4,0,0,0,.084.3l1.456,4.5a0.283,0.283,0,0,0,.234.2h0.917l2.131-6.6h-0.87a0.205,0.205,0,0,0-.215.1,0.223,0.223,0,0,0-.124.2l-1.286,4.2c-0.039.1-.076,0.3-0.111,0.4-0.035.2-.063,0.3-0.084,0.5-0.035-.2-0.071-0.3-0.108-0.5-0.037-.1-0.079-0.3-0.126-0.4l-1.359-4.3a0.356,0.356,0,0,0-.117-0.1,0.2,0.2,0,0,0-.214-0.1h-0.5a0.188,0.188,0,0,0-.2.1,0.346,0.346,0,0,0-.113.1l-1.391,4.3c-0.048.1-.094,0.3-0.137,0.4-0.043.2-.082,0.3-0.117,0.5-0.022-.2-0.048-0.3-0.078-0.5-0.03-.1-0.063-0.3-0.1-0.4l-1.262-4.2a0.221,0.221,0,0,0-.123-0.2,0.225,0.225,0,0,0-.234-0.1h-0.91Zm9.948,0v-4.8a2.159,2.159,0,0,1,.822-0.7,1.685,1.685,0,0,1,.959-0.3,1.56,1.56,0,0,1,1.043.4,1.934,1.934,0,0,1,.342,1.2v4.2h1.157v-4.2a3.152,3.152,0,0,0-.143-1,2.208,2.208,0,0,0-.42-0.8,1.823,1.823,0,0,0-.689-0.5,2.75,2.75,0,0,0-.952-0.2,2.3,2.3,0,0,0-1.183.3,3.947,3.947,0,0,0-.936.7v-3.9h-1.157v9.6h1.157Zm7.228-6.4a2.1,2.1,0,0,0-.969.7,2.214,2.214,0,0,0-.608,1,3.748,3.748,0,0,0-.211,1.3,5.012,5.012,0,0,0,.234,1.5,2.979,2.979,0,0,0,1.648,1.8,4.929,4.929,0,0,0,1.258.2,5.273,5.273,0,0,0,1.426-.3,0.9,0.9,0,0,0,.641-0.3,1.266,1.266,0,0,0,.513-0.4l-0.325-.4a0.3,0.3,0,0,0-.221-0.2,2.641,2.641,0,0,1-.263.1,2.57,2.57,0,0,1-.38.3,1.507,1.507,0,0,0-.543.2c-0.21,0-.461.1-0.751,0.1a2.276,2.276,0,0,1-.845-0.2,1.623,1.623,0,0,1-.65-0.4,2.386,2.386,0,0,1-.429-0.8,3.793,3.793,0,0,1-.169-1.1h4.381a0.186,0.186,0,0,0,.221-0.1,0.526,0.526,0,0,0,.059-0.3,3.872,3.872,0,0,0-.205-1.3,1.949,1.949,0,0,0-.569-0.9,1.75,1.75,0,0,0-.864-0.6,3.781,3.781,0,0,0-1.092-.2A2.727,2.727,0,0,0,461.244,12288.6Zm2.018,0.7a1.25,1.25,0,0,1,.523.4,1,1,0,0,1,.325.6,1.888,1.888,0,0,1,.111.7h-3.582a2.61,2.61,0,0,1,.6-1.4,1.838,1.838,0,0,1,1.32-.4A1.594,1.594,0,0,1,463.262,12289.3Zm4.884,5.7v-4.2a2.64,2.64,0,0,1,.679-1,1.722,1.722,0,0,1,1.011-.4,5.1,5.1,0,0,1,.527.1,1.329,1.329,0,0,1,.279.1,0.243,0.243,0,0,0,.2-0.2l0.149-.9c-0.126,0-.262-0.1-0.409-0.1a0.828,0.828,0,0,0-.494-0.1,1.639,1.639,0,0,0-1.167.4,2.414,2.414,0,0,0-.835,1.1l-0.078-1.1a0.343,0.343,0,0,0-.358-0.3h-0.663v6.6h1.157Zm5.227-6.4a2.105,2.105,0,0,0-.968.7,2.214,2.214,0,0,0-.608,1,3.748,3.748,0,0,0-.211,1.3,5.012,5.012,0,0,0,.234,1.5,2.979,2.979,0,0,0,1.648,1.8,4.922,4.922,0,0,0,1.257.2,5.27,5.27,0,0,0,1.427-.3,0.894,0.894,0,0,0,.64-0.3,1.262,1.262,0,0,0,.514-0.4l-0.325-.4a0.3,0.3,0,0,0-.221-0.2,2.641,2.641,0,0,1-.263.1,2.531,2.531,0,0,1-.381.3,1.509,1.509,0,0,0-.542.2c-0.21,0-.461.1-0.751,0.1a2.276,2.276,0,0,1-.845-0.2,1.623,1.623,0,0,1-.65-0.4,2.386,2.386,0,0,1-.429-0.8,3.793,3.793,0,0,1-.169-1.1h4.381a0.186,0.186,0,0,0,.221-0.1,0.528,0.528,0,0,0,.058-0.3,3.872,3.872,0,0,0-.2-1.3,1.949,1.949,0,0,0-.569-0.9,1.748,1.748,0,0,0-.865-0.6,3.768,3.768,0,0,0-1.092-.2A2.732,2.732,0,0,0,473.373,12288.6Zm2.019,0.7a1.25,1.25,0,0,1,.523.4,1,1,0,0,1,.325.6,1.889,1.889,0,0,1,.11.7h-3.581a2.61,2.61,0,0,1,.6-1.4,1.835,1.835,0,0,1,1.319-.4A1.6,1.6,0,0,1,475.392,12289.3Z" transform="translate(-293 -12252)"/>
  <rect id="base" class="cls-2" width="48" height="48" rx="10" ry="10"/>
  <path id="logo" class="cls-1" d="M319.06,12261.6a1.86,1.86,0,0,0-1.489-.9h-4.557a1.826,1.826,0,0,0-1.618,1.9,1.753,1.753,0,0,0,1.689,1.7h4.487a1.7,1.7,0,0,0,1.327-.6,6.032,6.032,0,0,1,1.338.1c0.492,1.4.975,2.9,1.46,4.3,0.849,2.7,1.638,5.4,2.324,8.2a44.915,44.915,0,0,1,.98,4.7,10.939,10.939,0,0,1,.137,2,5.062,5.062,0,0,0-.82,1.2,3.307,3.307,0,0,0-1.269-.7,7.569,7.569,0,0,0-1.508-.1H311.56a3.181,3.181,0,0,0-2.054.8,4.934,4.934,0,0,0-2.16-2.3,5.318,5.318,0,0,0-3.053-.4,4.589,4.589,0,0,0-2.761,1.7,4.808,4.808,0,0,0-1.134,3.3,4.939,4.939,0,0,0,2.9,4.4,4.2,4.2,0,0,0,3.784,0,4.825,4.825,0,0,0,2.825-3.6h14.015a5.042,5.042,0,0,0,1.464,2.7,4.545,4.545,0,0,0,3.292,1.3,4.857,4.857,0,0,0,4.346-2.9,5.074,5.074,0,0,0,.08-3.8,4.641,4.641,0,0,0-1.918-2.4,4.415,4.415,0,0,0-2.924-.8q-3.18-9.45-6.341-18.9a0.935,0.935,0,0,0-.838-0.7c-0.673-.1-1.347-0.1-2.02-0.2m10.1,22a2.511,2.511,0,0,1,1.713,1.1,3.019,3.019,0,0,1,.477,2.1,3.123,3.123,0,0,1-1.094,1.9,2.829,2.829,0,0,1-2,.5,2.541,2.541,0,0,1-1.837-1.2,2.591,2.591,0,0,1-.514-1.9,2.7,2.7,0,0,1,1.264-2.1,2.372,2.372,0,0,1,1.988-.4m-23.451,0a2.676,2.676,0,0,1,1.6,1,2.857,2.857,0,0,1,.6,2.1,2.93,2.93,0,0,1-1.146,2,2.7,2.7,0,0,1-2.142.4,2.484,2.484,0,0,1-1.808-1.3,2.957,2.957,0,0,1-.246-2.3,2.849,2.849,0,0,1,1.455-1.7A2.465,2.465,0,0,1,305.713,12283.6Zm23.322,1.3a1.515,1.515,0,0,0-1.757,1,1.429,1.429,0,0,0,.5,1.6,1.5,1.5,0,0,0,1.69.1,1.526,1.526,0,0,0,.581-1.5A1.658,1.658,0,0,0,329.035,12284.9Zm-23.448.1a1.332,1.332,0,0,0-1.54.5,1.419,1.419,0,0,0,.167,1.9,1.306,1.306,0,0,0,1.642.3,1.549,1.549,0,0,0,.749-1.5A1.32,1.32,0,0,0,305.587,12285Z" transform="translate(-293 -12252)"/>
</svg>
